<svg width="24" height="24" viewBox="0 0 24 24" fill="none" xmlns="http://www.w3.org/2000/svg">
  <path
    d="M5.12068 20.9657C4.62776 20.9657 4.20397 20.8605 3.84931 20.6501C3.49465 20.4397 3.22114 20.1542 3.02878 19.7935C2.83642 19.4388 2.74024 19.0391 2.74024 18.5942C2.74024 18.1735 2.85145 17.7707 3.07387 17.386L9.68318 5.86251C9.9056 5.47179 10.2001 5.17724 10.5668 4.97887C10.9335 4.77449 11.3182 4.67229 11.721 4.67229C12.1177 4.67229 12.4994 4.77449 12.8661 4.97887C13.2328 5.17724 13.5304 5.47179 13.7588 5.86251L20.3681 17.386C20.4763 17.5844 20.5575 17.7857 20.6116 17.9901C20.6717 18.1945 20.7017 18.3959 20.7017 18.5942C20.7017 19.0391 20.6055 19.4388 20.4132 19.7935C20.2208 20.1542 19.9473 20.4397 19.5927 20.6501C19.238 20.8605 18.8142 20.9657 18.3213 20.9657H5.12068ZM11.721 15.1859C12.2019 15.1859 12.4483 14.9364 12.4604 14.4375L12.5866 9.99221C12.5866 9.75176 12.5054 9.55039 12.3431 9.38808C12.1808 9.22578 11.9704 9.14463 11.712 9.14463C11.4535 9.14463 11.2431 9.22578 11.0808 9.38808C10.9245 9.54438 10.8494 9.74275 10.8554 9.98319L10.9726 14.4375C10.9846 14.9364 11.2341 15.1859 11.721 15.1859ZM11.721 18.0893C11.9915 18.0893 12.2259 18.0021 12.4243 17.8278C12.6287 17.6475 12.7309 17.4221 12.7309 17.1516C12.7309 16.875 12.6317 16.6466 12.4333 16.4663C12.2349 16.2859 11.9975 16.1958 11.721 16.1958C11.4505 16.1958 11.216 16.2889 11.0177 16.4753C10.8193 16.6556 10.7201 16.8811 10.7201 17.1516C10.7201 17.416 10.8193 17.6385 11.0177 17.8188C11.216 17.9991 11.4505 18.0893 11.721 18.0893Z"
    fill="white" />
</svg>
