<svg width="24" height="24" viewBox="0 0 24 24" fill="none" xmlns="http://www.w3.org/2000/svg">
  <path
    d="M11.2882 21.6059C10.0799 21.6059 8.94681 21.3774 7.88884 20.9206C6.83087 20.4697 5.89913 19.8416 5.09363 19.0361C4.28813 18.2306 3.65695 17.2988 3.2001 16.2409C2.74926 15.1769 2.52384 14.0438 2.52384 12.8415C2.52384 11.6333 2.74926 10.5002 3.2001 9.44219C3.65695 8.38421 4.28813 7.45248 5.09363 6.64698C5.89913 5.84147 6.83087 5.2133 7.88884 4.76246C8.94681 4.30561 10.0799 4.07719 11.2882 4.07719C12.4964 4.07719 13.6265 4.30561 14.6785 4.76246C15.7365 5.2133 16.6682 5.84147 17.4737 6.64698C18.2792 7.45248 18.9074 8.38421 19.3582 9.44219C19.8151 10.5002 20.0435 11.6333 20.0435 12.8415C20.0435 14.0438 19.8151 15.1769 19.3582 16.2409C18.9074 17.2988 18.2792 18.2306 17.4737 19.0361C16.6682 19.8416 15.7365 20.4697 14.6785 20.9206C13.6265 21.3774 12.4964 21.6059 11.2882 21.6059ZM9.73729 17.7557H13.326C13.5183 17.7557 13.6776 17.6956 13.8039 17.5753C13.9361 17.4491 14.0022 17.2868 14.0022 17.0884C14.0022 16.9141 13.9361 16.7638 13.8039 16.6376C13.6776 16.5054 13.5183 16.4392 13.326 16.4392H12.289V12.1292C12.289 11.8707 12.2259 11.6663 12.0997 11.5161C11.9795 11.3598 11.7991 11.2816 11.5587 11.2816H9.89057C9.69821 11.2816 9.53591 11.3447 9.40366 11.471C9.27142 11.5972 9.20529 11.7535 9.20529 11.9398C9.20529 12.1262 9.27142 12.2855 9.40366 12.4177C9.53591 12.544 9.69821 12.6071 9.89057 12.6071H10.8013V16.4392H9.73729C9.54493 16.4392 9.38262 16.5054 9.25038 16.6376C9.11813 16.7638 9.05201 16.9141 9.05201 17.0884C9.05201 17.2868 9.11813 17.4491 9.25038 17.5753C9.38262 17.6956 9.54493 17.7557 9.73729 17.7557ZM11.2251 9.87499C11.5497 9.87499 11.8262 9.75777 12.0546 9.52334C12.289 9.2889 12.4063 9.00637 12.4063 8.67576C12.4063 8.33913 12.289 8.0566 12.0546 7.82818C11.8262 7.59975 11.5497 7.48554 11.2251 7.48554C10.8944 7.48554 10.6119 7.59975 10.3775 7.82818C10.1491 8.0566 10.0348 8.33913 10.0348 8.67576C10.0348 9.00637 10.1491 9.2889 10.3775 9.52334C10.6119 9.75777 10.8944 9.87499 11.2251 9.87499Z"
    fill="white" />
</svg>
