<svg width="100" height="100" viewBox="0 0 100 100" fill="none" xmlns="http://www.w3.org/2000/svg">
  <rect width="100" height="100" rx="16" fill="#272727" />
  <path
    d="M66.9131 84.9123L62.0501 82.6891C61.7667 82.5462 61.5364 82.3676 61.3592 82.1533C61.1821 81.9569 61.0404 81.7069 60.9341 81.4033L53.3873 60.5368C51.3854 60.5011 49.5076 60.0814 47.7537 59.2778C45.9999 58.4564 44.4586 57.3313 43.13 55.9027C41.819 54.4563 40.8181 52.7777 40.1272 50.8669C39.2237 48.3311 39.0023 45.8043 39.4629 43.2864C39.9412 40.7685 40.9864 38.5184 42.5985 36.5362C44.2106 34.554 46.2922 33.0986 48.8432 32.17C50.5794 31.5093 52.3332 31.2147 54.1047 31.2861C55.894 31.3397 57.5858 31.6879 59.1802 32.3308C58.8791 33.7772 58.3033 35.0987 57.453 36.2951C56.6026 37.4737 55.584 38.438 54.397 39.1881C53.9364 38.8845 53.4138 38.697 52.8292 38.6255C52.2623 38.5363 51.6954 38.5988 51.1285 38.8131C50.1896 39.1523 49.5076 39.7863 49.0824 40.7149C48.6572 41.6256 48.6218 42.5542 48.9761 43.5007C49.3127 44.465 49.9327 45.1703 50.8362 45.6168C51.7574 46.0454 52.6964 46.09 53.653 45.7507C54.3439 45.4828 54.8842 45.0632 55.274 44.4918C55.6814 43.9203 55.9117 43.2953 55.9649 42.6167C57.5061 41.6881 58.8436 40.5095 59.9774 39.0809C61.1289 37.6523 61.9881 36.0541 62.555 34.2862C63.618 35.0898 64.5658 36.0541 65.3984 37.1791C66.231 38.2863 66.9042 39.5184 67.418 40.8756C68.4632 43.8042 68.534 46.7418 67.6305 49.6883C66.7448 52.6348 64.9466 55.367 62.2362 57.8849L69.597 61.4207C69.969 61.5993 70.217 61.8582 70.341 62.1975C70.4827 62.519 70.4739 62.8493 70.3144 63.1886L66.8068 70.7691L72.2011 73.3406C72.5554 73.5014 72.7946 73.7335 72.9186 74.0371C73.0426 74.3585 73.0249 74.7067 72.8655 75.0817L68.6669 84.2427C68.472 84.6177 68.1974 84.8498 67.8431 84.9391C67.4888 85.0284 67.1788 85.0195 66.9131 84.9123ZM31.2517 84.2427C30.8797 84.4034 30.5254 84.3945 30.1888 84.2159C29.8699 84.0552 29.6485 83.8498 29.5245 83.5998L27.2126 78.7515C27.0709 78.4836 27 78.2068 27 77.9211C27 77.6354 27.0443 77.3497 27.1329 77.0639L34.7328 56.1438C33.2093 54.8224 32.0312 53.2866 31.1986 51.5366C30.3659 49.7687 29.8965 47.9115 29.7902 45.965C29.7016 44.0185 29.9939 42.0899 30.6671 40.1792C31.3934 38.2327 32.4298 36.5451 33.7762 35.1165C35.1226 33.6879 36.7081 32.5808 38.5328 31.795C40.3575 31.0093 42.3328 30.6343 44.4586 30.67C42.5808 31.7415 40.9775 33.0808 39.6489 34.688C38.3379 36.2951 37.337 38.063 36.6461 39.9917C35.9552 41.9024 35.6097 43.9025 35.6097 45.9918C35.6097 48.0633 35.9729 50.1169 36.6992 52.1526C37.4079 54.1348 38.4088 55.9117 39.702 57.4831C40.9953 59.0367 42.4656 60.2868 44.1132 61.2332C44.1132 61.3761 44.1132 61.51 44.1132 61.635C44.1309 61.7422 44.1398 61.8582 44.1398 61.9832L46.5579 67.3405C46.7351 67.7334 46.7617 68.0994 46.6377 68.4387C46.5136 68.7602 46.2922 69.0013 45.9733 69.162L38.4531 72.6978L40.9775 78.189C41.137 78.5283 41.1547 78.8586 41.0307 79.1801C40.9244 79.5015 40.6941 79.7426 40.3398 79.9033L31.2517 84.2427ZM34.786 35.0362C34.4671 34.2326 34.2191 33.3933 34.0419 32.5183C33.8825 31.6254 33.8028 30.7236 33.8028 29.8128C33.8028 27.7771 34.1836 25.8663 34.9454 24.0806C35.7072 22.2948 36.7613 20.7233 38.1076 19.3662C39.454 17.9911 41.013 16.9197 42.7845 16.1518C44.5738 15.3839 46.4694 15 48.4712 15C50.4908 15 52.3863 15.3929 54.1579 16.1786C55.9472 16.9465 57.5238 18.009 58.8879 19.3662C60.252 20.7233 61.315 22.3037 62.0767 24.1074C62.8385 25.8931 63.2194 27.7949 63.2194 29.8128C63.2194 30.5807 63.1574 31.3575 63.0334 32.1433C62.9094 32.9111 62.7499 33.6254 62.555 34.2862C62.0236 33.8933 61.4833 33.5272 60.9341 33.1879C60.3849 32.8486 59.8003 32.5629 59.1802 32.3308C59.2865 31.9557 59.3574 31.554 59.3928 31.1254C59.4283 30.6789 59.446 30.2414 59.446 29.8128C59.446 27.7592 58.9499 25.902 57.9579 24.2413C56.9835 22.5627 55.6637 21.2323 53.9984 20.2501C52.3332 19.2501 50.4908 18.7501 48.4712 18.7501C46.4339 18.7501 44.5915 19.2501 42.944 20.2501C41.2964 21.2323 39.9855 22.5627 39.0111 24.2413C38.0368 25.902 37.5496 27.7592 37.5496 29.8128C37.5496 31.1343 37.7533 32.3665 38.1608 33.5094L34.786 35.0362Z"
    fill="white" />
</svg>
